<?xml version="1.0" encoding="UTF-8" standalone="no"?>
<svg
   xmlns:dc="http://purl.org/dc/elements/1.1/"
   xmlns:cc="http://creativecommons.org/ns#"
   xmlns:rdf="http://www.w3.org/1999/02/22-rdf-syntax-ns#"
   xmlns:svg="http://www.w3.org/2000/svg"
   xmlns="http://www.w3.org/2000/svg"
   xmlns:sodipodi="http://sodipodi.sourceforge.net/DTD/sodipodi-0.dtd"
   xmlns:inkscape="http://www.inkscape.org/namespaces/inkscape"
   fill="#000000"
   viewBox="0 0 26 26"
   width="104px"
   height="104px"
   version="1.1"
   id="svg899"
   sodipodi:docname="ruby.svg"
   inkscape:version="0.92.4 (f8dce91, 2019-08-02)">
  <metadata
     id="metadata905">
    <rdf:RDF>
      <cc:Work
         rdf:about="">
        <dc:format>image/svg+xml</dc:format>
        <dc:type
           rdf:resource="http://purl.org/dc/dcmitype/StillImage" />
      </cc:Work>
    </rdf:RDF>
  </metadata>
  <defs
     id="defs903" />
  <sodipodi:namedview
     pagecolor="#ffffff"
     bordercolor="#666666"
     borderopacity="1"
     objecttolerance="10"
     gridtolerance="10"
     guidetolerance="10"
     inkscape:pageopacity="0"
     inkscape:pageshadow="2"
     inkscape:window-width="1850"
     inkscape:window-height="1016"
     id="namedview901"
     showgrid="false"
     inkscape:zoom="7.5192308"
     inkscape:cx="52"
     inkscape:cy="52"
     inkscape:window-x="70"
     inkscape:window-y="27"
     inkscape:window-maximized="1"
     inkscape:current-layer="svg899" />
  <path
     d="M 12.992188 1.625 C 12.867188 1.625 12.746094 1.65625 12.636719 1.710938 L 7.761719 4.148438 C 7.683594 4.1875 7.613281 4.238281 7.550781 4.300781 L 4.300781 7.550781 C 4.253906 7.597656 4.210938 7.648438 4.175781 7.707031 L 1.738281 11.769531 C 1.664063 11.894531 1.625 12.039063 1.625 12.1875 C 1.625 12.203125 1.625 12.21875 1.625 12.234375 L 1.625 18.6875 C 1.625 18.898438 1.707031 19.105469 1.855469 19.253906 C 2.011719 20.105469 2.230469 20.945313 2.832031 21.542969 C 3.761719 22.472656 5.054688 22.796875 6.5 22.710938 L 6.5 22.75 L 22.75 22.75 L 22.75 8.996094 C 22.753906 8.957031 22.753906 8.914063 22.75 8.875 L 22.75 5.6875 L 22.738281 5.6875 C 22.667969 4.570313 22.296875 3.582031 21.542969 2.832031 C 20.945313 2.230469 20.105469 2.011719 19.253906 1.855469 L 19.253906 1.851563 C 19.101563 1.707031 18.898438 1.625 18.6875 1.625 L 13 1.625 C 12.996094 1.625 12.992188 1.625 12.992188 1.625 Z M 15.683594 3.25 L 18.539063 3.25 C 18.566406 3.257813 18.597656 3.261719 18.628906 3.261719 C 19.40625 3.320313 19.980469 3.566406 20.394531 3.980469 C 21.039063 4.625 21.273438 5.753906 21.011719 7.226563 L 15.957031 3.4375 L 15.925781 3.410156 C 15.914063 3.402344 15.902344 3.394531 15.886719 3.386719 Z M 12.941406 3.375 L 14.46875 4.394531 L 13.101563 8.5 L 8.546875 13.054688 L 4.445313 13.734375 L 3.398438 12.164063 L 5.519531 8.628906 L 8.609375 5.542969 Z M 15.851563 5.390625 L 19.496094 8.125 L 14.9375 8.125 Z M 15.011719 9.75 L 20.167969 9.75 C 19.464844 11.308594 18.382813 12.980469 16.957031 14.613281 Z M 13.515625 10.382813 L 15.601563 15.601563 L 10.382813 13.515625 Z M 21.125 11.5 L 21.125 19.976563 L 17.757813 16.609375 L 17.628906 16.289063 C 19.082031 14.726563 20.269531 13.097656 21.125 11.5 Z M 8.023438 14.789063 L 7.574219 19.273438 L 5.332031 15.238281 Z M 3.25 14.871094 L 3.367188 15.046875 L 6.707031 21.058594 C 5.496094 21.179688 4.542969 20.957031 3.980469 20.394531 C 3.980469 20.394531 3.976563 20.394531 3.976563 20.394531 C 3.5625 19.980469 3.320313 19.410156 3.261719 18.628906 C 3.261719 18.59375 3.257813 18.5625 3.25 18.53125 Z M 9.640625 14.972656 L 14.617188 16.960938 C 12.753906 18.582031 10.824219 19.78125 9.089844 20.453125 Z M 16.289063 17.628906 L 16.609375 17.757813 L 19.976563 21.125 L 11.503906 21.125 C 13.105469 20.269531 14.730469 19.082031 16.289063 17.628906 Z"
     id="path897"
     style="fill:#cc0000" />
</svg>
